<mxfile host="app.diagrams.net" modified="2024-03-14T14:01:21.929Z" agent="Mozilla/5.0 (Windows NT 10.0; Win64; x64) AppleWebKit/537.36 (KHTML, like Gecko) Chrome/122.0.0.0 Safari/537.36 Edg/122.0.0.0" etag="c7qTbl6Ojr49-_R8fLvy" version="24.0.5" type="device">
  <diagram id="R2lEEEUBdFMjLlhIrx00" name="Page-1">
    <mxGraphModel dx="1386" dy="751" grid="1" gridSize="10" guides="1" tooltips="1" connect="1" arrows="1" fold="1" page="1" pageScale="1" pageWidth="850" pageHeight="1100" math="0" shadow="0" extFonts="Permanent Marker^https://fonts.googleapis.com/css?family=Permanent+Marker">
      <root>
        <mxCell id="0" />
        <mxCell id="1" parent="0" />
        <mxCell id="kB7soZWUzMKkuwf9A85N-1" value="Bag" style="shape=table;startSize=30;container=1;collapsible=1;childLayout=tableLayout;fixedRows=1;rowLines=0;fontStyle=1;align=center;resizeLast=1;strokeWidth=1;" parent="1" vertex="1">
          <mxGeometry x="72.5" y="1080" width="200" height="110" as="geometry" />
        </mxCell>
        <mxCell id="kB7soZWUzMKkuwf9A85N-2" value="" style="shape=partialRectangle;collapsible=0;dropTarget=0;pointerEvents=0;fillColor=none;points=[[0,0.5],[1,0.5]];portConstraint=eastwest;top=0;left=0;right=0;bottom=1;strokeWidth=1;" parent="kB7soZWUzMKkuwf9A85N-1" vertex="1">
          <mxGeometry y="30" width="200" height="30" as="geometry" />
        </mxCell>
        <mxCell id="kB7soZWUzMKkuwf9A85N-3" value="PK" style="shape=partialRectangle;overflow=hidden;connectable=0;fillColor=none;top=0;left=0;bottom=0;right=0;fontStyle=1;strokeWidth=1;" parent="kB7soZWUzMKkuwf9A85N-2" vertex="1">
          <mxGeometry width="30" height="30" as="geometry">
            <mxRectangle width="30" height="30" as="alternateBounds" />
          </mxGeometry>
        </mxCell>
        <mxCell id="kB7soZWUzMKkuwf9A85N-4" value="bag_id int NOT NULL " style="shape=partialRectangle;overflow=hidden;connectable=0;fillColor=none;top=0;left=0;bottom=0;right=0;align=left;spacingLeft=6;fontStyle=5;strokeWidth=1;" parent="kB7soZWUzMKkuwf9A85N-2" vertex="1">
          <mxGeometry x="30" width="170" height="30" as="geometry">
            <mxRectangle width="170" height="30" as="alternateBounds" />
          </mxGeometry>
        </mxCell>
        <mxCell id="kB7soZWUzMKkuwf9A85N-5" value="" style="shape=partialRectangle;collapsible=0;dropTarget=0;pointerEvents=0;fillColor=none;points=[[0,0.5],[1,0.5]];portConstraint=eastwest;top=0;left=0;right=0;bottom=0;strokeWidth=1;" parent="kB7soZWUzMKkuwf9A85N-1" vertex="1">
          <mxGeometry y="60" width="200" height="30" as="geometry" />
        </mxCell>
        <mxCell id="kB7soZWUzMKkuwf9A85N-6" value="" style="shape=partialRectangle;overflow=hidden;connectable=0;fillColor=none;top=0;left=0;bottom=0;right=0;strokeWidth=1;" parent="kB7soZWUzMKkuwf9A85N-5" vertex="1">
          <mxGeometry width="30" height="30" as="geometry">
            <mxRectangle width="30" height="30" as="alternateBounds" />
          </mxGeometry>
        </mxCell>
        <mxCell id="kB7soZWUzMKkuwf9A85N-7" value="slot int NOT NULL" style="shape=partialRectangle;overflow=hidden;connectable=0;fillColor=none;top=0;left=0;bottom=0;right=0;align=left;spacingLeft=6;strokeWidth=1;" parent="kB7soZWUzMKkuwf9A85N-5" vertex="1">
          <mxGeometry x="30" width="170" height="30" as="geometry">
            <mxRectangle width="170" height="30" as="alternateBounds" />
          </mxGeometry>
        </mxCell>
        <mxCell id="kB7soZWUzMKkuwf9A85N-8" value="" style="shape=partialRectangle;collapsible=0;dropTarget=0;pointerEvents=0;fillColor=none;points=[[0,0.5],[1,0.5]];portConstraint=eastwest;top=0;left=0;right=0;bottom=0;strokeWidth=1;" parent="kB7soZWUzMKkuwf9A85N-1" vertex="1">
          <mxGeometry y="90" width="200" height="20" as="geometry" />
        </mxCell>
        <mxCell id="kB7soZWUzMKkuwf9A85N-9" value="" style="shape=partialRectangle;overflow=hidden;connectable=0;fillColor=none;top=0;left=0;bottom=0;right=0;strokeWidth=1;" parent="kB7soZWUzMKkuwf9A85N-8" vertex="1">
          <mxGeometry width="30" height="20" as="geometry">
            <mxRectangle width="30" height="20" as="alternateBounds" />
          </mxGeometry>
        </mxCell>
        <mxCell id="kB7soZWUzMKkuwf9A85N-10" value="" style="shape=partialRectangle;overflow=hidden;connectable=0;fillColor=none;top=0;left=0;bottom=0;right=0;align=left;spacingLeft=6;strokeWidth=1;" parent="kB7soZWUzMKkuwf9A85N-8" vertex="1">
          <mxGeometry x="30" width="170" height="20" as="geometry">
            <mxRectangle width="170" height="20" as="alternateBounds" />
          </mxGeometry>
        </mxCell>
        <mxCell id="kB7soZWUzMKkuwf9A85N-11" value="Animal" style="shape=table;startSize=30;container=1;collapsible=1;childLayout=tableLayout;fixedRows=1;rowLines=0;fontStyle=1;align=center;resizeLast=1;strokeWidth=1;" parent="1" vertex="1">
          <mxGeometry x="807.5" y="830" width="255" height="270" as="geometry" />
        </mxCell>
        <mxCell id="kB7soZWUzMKkuwf9A85N-12" value="" style="shape=partialRectangle;collapsible=0;dropTarget=0;pointerEvents=0;fillColor=none;points=[[0,0.5],[1,0.5]];portConstraint=eastwest;top=0;left=0;right=0;bottom=1;strokeWidth=1;" parent="kB7soZWUzMKkuwf9A85N-11" vertex="1">
          <mxGeometry y="30" width="255" height="30" as="geometry" />
        </mxCell>
        <mxCell id="kB7soZWUzMKkuwf9A85N-13" value="PK" style="shape=partialRectangle;overflow=hidden;connectable=0;fillColor=none;top=0;left=0;bottom=0;right=0;fontStyle=1;strokeWidth=1;" parent="kB7soZWUzMKkuwf9A85N-12" vertex="1">
          <mxGeometry width="30" height="30" as="geometry">
            <mxRectangle width="30" height="30" as="alternateBounds" />
          </mxGeometry>
        </mxCell>
        <mxCell id="kB7soZWUzMKkuwf9A85N-14" value="animal_id int NOT NULL " style="shape=partialRectangle;overflow=hidden;connectable=0;fillColor=none;top=0;left=0;bottom=0;right=0;align=left;spacingLeft=6;fontStyle=5;strokeWidth=1;" parent="kB7soZWUzMKkuwf9A85N-12" vertex="1">
          <mxGeometry x="30" width="225" height="30" as="geometry">
            <mxRectangle width="225" height="30" as="alternateBounds" />
          </mxGeometry>
        </mxCell>
        <mxCell id="kB7soZWUzMKkuwf9A85N-15" value="" style="shape=partialRectangle;collapsible=0;dropTarget=0;pointerEvents=0;fillColor=none;points=[[0,0.5],[1,0.5]];portConstraint=eastwest;top=0;left=0;right=0;bottom=0;strokeWidth=1;" parent="kB7soZWUzMKkuwf9A85N-11" vertex="1">
          <mxGeometry y="60" width="255" height="30" as="geometry" />
        </mxCell>
        <mxCell id="kB7soZWUzMKkuwf9A85N-16" value="" style="shape=partialRectangle;overflow=hidden;connectable=0;fillColor=none;top=0;left=0;bottom=0;right=0;strokeWidth=1;" parent="kB7soZWUzMKkuwf9A85N-15" vertex="1">
          <mxGeometry width="30" height="30" as="geometry">
            <mxRectangle width="30" height="30" as="alternateBounds" />
          </mxGeometry>
        </mxCell>
        <mxCell id="kB7soZWUzMKkuwf9A85N-17" value="nickname char(50) NOT NULL" style="shape=partialRectangle;overflow=hidden;connectable=0;fillColor=none;top=0;left=0;bottom=0;right=0;align=left;spacingLeft=6;strokeWidth=1;" parent="kB7soZWUzMKkuwf9A85N-15" vertex="1">
          <mxGeometry x="30" width="225" height="30" as="geometry">
            <mxRectangle width="225" height="30" as="alternateBounds" />
          </mxGeometry>
        </mxCell>
        <mxCell id="kB7soZWUzMKkuwf9A85N-18" value="" style="shape=partialRectangle;collapsible=0;dropTarget=0;pointerEvents=0;fillColor=none;points=[[0,0.5],[1,0.5]];portConstraint=eastwest;top=0;left=0;right=0;bottom=0;strokeWidth=1;" parent="kB7soZWUzMKkuwf9A85N-11" vertex="1">
          <mxGeometry y="90" width="255" height="30" as="geometry" />
        </mxCell>
        <mxCell id="kB7soZWUzMKkuwf9A85N-19" value="" style="shape=partialRectangle;overflow=hidden;connectable=0;fillColor=none;top=0;left=0;bottom=0;right=0;strokeWidth=1;" parent="kB7soZWUzMKkuwf9A85N-18" vertex="1">
          <mxGeometry width="30" height="30" as="geometry">
            <mxRectangle width="30" height="30" as="alternateBounds" />
          </mxGeometry>
        </mxCell>
        <mxCell id="kB7soZWUzMKkuwf9A85N-20" value="favoriteFood char(50) NOT NULL" style="shape=partialRectangle;overflow=hidden;connectable=0;fillColor=none;top=0;left=0;bottom=0;right=0;align=left;spacingLeft=6;strokeWidth=1;" parent="kB7soZWUzMKkuwf9A85N-18" vertex="1">
          <mxGeometry x="30" width="225" height="30" as="geometry">
            <mxRectangle width="225" height="30" as="alternateBounds" />
          </mxGeometry>
        </mxCell>
        <mxCell id="kB7soZWUzMKkuwf9A85N-21" value="" style="shape=partialRectangle;collapsible=0;dropTarget=0;pointerEvents=0;fillColor=none;points=[[0,0.5],[1,0.5]];portConstraint=eastwest;top=0;left=0;right=0;bottom=0;strokeWidth=1;" parent="kB7soZWUzMKkuwf9A85N-11" vertex="1">
          <mxGeometry y="120" width="255" height="30" as="geometry" />
        </mxCell>
        <mxCell id="kB7soZWUzMKkuwf9A85N-22" value="" style="shape=partialRectangle;overflow=hidden;connectable=0;fillColor=none;top=0;left=0;bottom=0;right=0;strokeWidth=1;" parent="kB7soZWUzMKkuwf9A85N-21" vertex="1">
          <mxGeometry width="30" height="30" as="geometry">
            <mxRectangle width="30" height="30" as="alternateBounds" />
          </mxGeometry>
        </mxCell>
        <mxCell id="kB7soZWUzMKkuwf9A85N-23" value="age int NOT NULL" style="shape=partialRectangle;overflow=hidden;connectable=0;fillColor=none;top=0;left=0;bottom=0;right=0;align=left;spacingLeft=6;strokeWidth=1;" parent="kB7soZWUzMKkuwf9A85N-21" vertex="1">
          <mxGeometry x="30" width="225" height="30" as="geometry">
            <mxRectangle width="225" height="30" as="alternateBounds" />
          </mxGeometry>
        </mxCell>
        <mxCell id="kB7soZWUzMKkuwf9A85N-24" value="" style="shape=partialRectangle;collapsible=0;dropTarget=0;pointerEvents=0;fillColor=none;points=[[0,0.5],[1,0.5]];portConstraint=eastwest;top=0;left=0;right=0;bottom=0;strokeWidth=1;" parent="kB7soZWUzMKkuwf9A85N-11" vertex="1">
          <mxGeometry y="150" width="255" height="30" as="geometry" />
        </mxCell>
        <mxCell id="kB7soZWUzMKkuwf9A85N-25" value="" style="shape=partialRectangle;overflow=hidden;connectable=0;fillColor=none;top=0;left=0;bottom=0;right=0;strokeWidth=1;" parent="kB7soZWUzMKkuwf9A85N-24" vertex="1">
          <mxGeometry width="30" height="30" as="geometry">
            <mxRectangle width="30" height="30" as="alternateBounds" />
          </mxGeometry>
        </mxCell>
        <mxCell id="kB7soZWUzMKkuwf9A85N-26" value="dateEntry date NOT NULL" style="shape=partialRectangle;overflow=hidden;connectable=0;fillColor=none;top=0;left=0;bottom=0;right=0;align=left;spacingLeft=6;strokeWidth=1;" parent="kB7soZWUzMKkuwf9A85N-24" vertex="1">
          <mxGeometry x="30" width="225" height="30" as="geometry">
            <mxRectangle width="225" height="30" as="alternateBounds" />
          </mxGeometry>
        </mxCell>
        <mxCell id="kB7soZWUzMKkuwf9A85N-27" value="" style="shape=partialRectangle;collapsible=0;dropTarget=0;pointerEvents=0;fillColor=none;points=[[0,0.5],[1,0.5]];portConstraint=eastwest;top=0;left=0;right=0;bottom=0;strokeWidth=1;" parent="kB7soZWUzMKkuwf9A85N-11" vertex="1">
          <mxGeometry y="180" width="255" height="30" as="geometry" />
        </mxCell>
        <mxCell id="kB7soZWUzMKkuwf9A85N-28" value="" style="shape=partialRectangle;overflow=hidden;connectable=0;fillColor=none;top=0;left=0;bottom=0;right=0;strokeWidth=1;" parent="kB7soZWUzMKkuwf9A85N-27" vertex="1">
          <mxGeometry width="30" height="30" as="geometry">
            <mxRectangle width="30" height="30" as="alternateBounds" />
          </mxGeometry>
        </mxCell>
        <mxCell id="kB7soZWUzMKkuwf9A85N-29" value="weight float NOT NULL" style="shape=partialRectangle;overflow=hidden;connectable=0;fillColor=none;top=0;left=0;bottom=0;right=0;align=left;spacingLeft=6;strokeWidth=1;" parent="kB7soZWUzMKkuwf9A85N-27" vertex="1">
          <mxGeometry x="30" width="225" height="30" as="geometry">
            <mxRectangle width="225" height="30" as="alternateBounds" />
          </mxGeometry>
        </mxCell>
        <mxCell id="kB7soZWUzMKkuwf9A85N-30" value="" style="shape=partialRectangle;collapsible=0;dropTarget=0;pointerEvents=0;fillColor=none;points=[[0,0.5],[1,0.5]];portConstraint=eastwest;top=0;left=0;right=0;bottom=0;strokeWidth=1;" parent="kB7soZWUzMKkuwf9A85N-11" vertex="1">
          <mxGeometry y="210" width="255" height="30" as="geometry" />
        </mxCell>
        <mxCell id="kB7soZWUzMKkuwf9A85N-31" value="" style="shape=partialRectangle;overflow=hidden;connectable=0;fillColor=none;top=0;left=0;bottom=0;right=0;strokeWidth=1;" parent="kB7soZWUzMKkuwf9A85N-30" vertex="1">
          <mxGeometry width="30" height="30" as="geometry">
            <mxRectangle width="30" height="30" as="alternateBounds" />
          </mxGeometry>
        </mxCell>
        <mxCell id="kB7soZWUzMKkuwf9A85N-32" value="height float NOT NULL" style="shape=partialRectangle;overflow=hidden;connectable=0;fillColor=none;top=0;left=0;bottom=0;right=0;align=left;spacingLeft=6;strokeWidth=1;" parent="kB7soZWUzMKkuwf9A85N-30" vertex="1">
          <mxGeometry x="30" width="225" height="30" as="geometry">
            <mxRectangle width="225" height="30" as="alternateBounds" />
          </mxGeometry>
        </mxCell>
        <mxCell id="kB7soZWUzMKkuwf9A85N-33" style="shape=partialRectangle;collapsible=0;dropTarget=0;pointerEvents=0;fillColor=none;points=[[0,0.5],[1,0.5]];portConstraint=eastwest;top=0;left=0;right=0;bottom=0;strokeWidth=1;" parent="kB7soZWUzMKkuwf9A85N-11" vertex="1">
          <mxGeometry y="240" width="255" height="30" as="geometry" />
        </mxCell>
        <mxCell id="kB7soZWUzMKkuwf9A85N-34" style="shape=partialRectangle;overflow=hidden;connectable=0;fillColor=none;top=0;left=0;bottom=0;right=0;strokeWidth=1;" parent="kB7soZWUzMKkuwf9A85N-33" vertex="1">
          <mxGeometry width="30" height="30" as="geometry">
            <mxRectangle width="30" height="30" as="alternateBounds" />
          </mxGeometry>
        </mxCell>
        <mxCell id="kB7soZWUzMKkuwf9A85N-35" style="shape=partialRectangle;overflow=hidden;connectable=0;fillColor=none;top=0;left=0;bottom=0;right=0;align=left;spacingLeft=6;strokeWidth=1;" parent="kB7soZWUzMKkuwf9A85N-33" vertex="1">
          <mxGeometry x="30" width="225" height="30" as="geometry">
            <mxRectangle width="225" height="30" as="alternateBounds" />
          </mxGeometry>
        </mxCell>
        <mxCell id="kB7soZWUzMKkuwf9A85N-36" value="Player" style="shape=table;startSize=30;container=1;collapsible=1;childLayout=tableLayout;fixedRows=1;rowLines=0;fontStyle=1;align=center;resizeLast=1;strokeWidth=1;" parent="1" vertex="1">
          <mxGeometry x="455" y="1080" width="200" height="120" as="geometry" />
        </mxCell>
        <mxCell id="kB7soZWUzMKkuwf9A85N-37" value="" style="shape=partialRectangle;collapsible=0;dropTarget=0;pointerEvents=0;fillColor=none;points=[[0,0.5],[1,0.5]];portConstraint=eastwest;top=0;left=0;right=0;bottom=1;strokeWidth=1;" parent="kB7soZWUzMKkuwf9A85N-36" vertex="1">
          <mxGeometry y="30" width="200" height="30" as="geometry" />
        </mxCell>
        <mxCell id="kB7soZWUzMKkuwf9A85N-38" value="PK" style="shape=partialRectangle;overflow=hidden;connectable=0;fillColor=none;top=0;left=0;bottom=0;right=0;fontStyle=1;strokeWidth=1;" parent="kB7soZWUzMKkuwf9A85N-37" vertex="1">
          <mxGeometry width="30" height="30" as="geometry">
            <mxRectangle width="30" height="30" as="alternateBounds" />
          </mxGeometry>
        </mxCell>
        <mxCell id="kB7soZWUzMKkuwf9A85N-39" value="player_id int NOT NULL " style="shape=partialRectangle;overflow=hidden;connectable=0;fillColor=none;top=0;left=0;bottom=0;right=0;align=left;spacingLeft=6;fontStyle=5;strokeWidth=1;" parent="kB7soZWUzMKkuwf9A85N-37" vertex="1">
          <mxGeometry x="30" width="170" height="30" as="geometry">
            <mxRectangle width="170" height="30" as="alternateBounds" />
          </mxGeometry>
        </mxCell>
        <mxCell id="kB7soZWUzMKkuwf9A85N-40" value="" style="shape=partialRectangle;collapsible=0;dropTarget=0;pointerEvents=0;fillColor=none;points=[[0,0.5],[1,0.5]];portConstraint=eastwest;top=0;left=0;right=0;bottom=0;strokeWidth=1;" parent="kB7soZWUzMKkuwf9A85N-36" vertex="1">
          <mxGeometry y="60" width="200" height="30" as="geometry" />
        </mxCell>
        <mxCell id="kB7soZWUzMKkuwf9A85N-41" value="" style="shape=partialRectangle;overflow=hidden;connectable=0;fillColor=none;top=0;left=0;bottom=0;right=0;strokeWidth=1;" parent="kB7soZWUzMKkuwf9A85N-40" vertex="1">
          <mxGeometry width="30" height="30" as="geometry">
            <mxRectangle width="30" height="30" as="alternateBounds" />
          </mxGeometry>
        </mxCell>
        <mxCell id="kB7soZWUzMKkuwf9A85N-42" value="name char(50) NOT NULL" style="shape=partialRectangle;overflow=hidden;connectable=0;fillColor=none;top=0;left=0;bottom=0;right=0;align=left;spacingLeft=6;strokeWidth=1;" parent="kB7soZWUzMKkuwf9A85N-40" vertex="1">
          <mxGeometry x="30" width="170" height="30" as="geometry">
            <mxRectangle width="170" height="30" as="alternateBounds" />
          </mxGeometry>
        </mxCell>
        <mxCell id="kB7soZWUzMKkuwf9A85N-43" value="" style="shape=partialRectangle;collapsible=0;dropTarget=0;pointerEvents=0;fillColor=none;points=[[0,0.5],[1,0.5]];portConstraint=eastwest;top=0;left=0;right=0;bottom=0;strokeWidth=1;" parent="kB7soZWUzMKkuwf9A85N-36" vertex="1">
          <mxGeometry y="90" width="200" height="30" as="geometry" />
        </mxCell>
        <mxCell id="kB7soZWUzMKkuwf9A85N-44" value="" style="shape=partialRectangle;overflow=hidden;connectable=0;fillColor=none;top=0;left=0;bottom=0;right=0;strokeWidth=1;" parent="kB7soZWUzMKkuwf9A85N-43" vertex="1">
          <mxGeometry width="30" height="30" as="geometry">
            <mxRectangle width="30" height="30" as="alternateBounds" />
          </mxGeometry>
        </mxCell>
        <mxCell id="kB7soZWUzMKkuwf9A85N-45" value="lifepoints int NOT NULL" style="shape=partialRectangle;overflow=hidden;connectable=0;fillColor=none;top=0;left=0;bottom=0;right=0;align=left;spacingLeft=6;strokeWidth=1;" parent="kB7soZWUzMKkuwf9A85N-43" vertex="1">
          <mxGeometry x="30" width="170" height="30" as="geometry">
            <mxRectangle width="170" height="30" as="alternateBounds" />
          </mxGeometry>
        </mxCell>
        <mxCell id="kB7soZWUzMKkuwf9A85N-46" value="Item" style="shape=table;startSize=30;container=1;collapsible=1;childLayout=tableLayout;fixedRows=1;rowLines=0;fontStyle=1;align=center;resizeLast=1;strokeWidth=1;" parent="1" vertex="1">
          <mxGeometry x="50" y="740" width="245" height="210" as="geometry" />
        </mxCell>
        <mxCell id="kB7soZWUzMKkuwf9A85N-47" value="" style="shape=partialRectangle;collapsible=0;dropTarget=0;pointerEvents=0;fillColor=none;points=[[0,0.5],[1,0.5]];portConstraint=eastwest;top=0;left=0;right=0;bottom=1;strokeWidth=1;" parent="kB7soZWUzMKkuwf9A85N-46" vertex="1">
          <mxGeometry y="30" width="245" height="30" as="geometry" />
        </mxCell>
        <mxCell id="kB7soZWUzMKkuwf9A85N-48" value="PK" style="shape=partialRectangle;overflow=hidden;connectable=0;fillColor=none;top=0;left=0;bottom=0;right=0;fontStyle=1;strokeWidth=1;" parent="kB7soZWUzMKkuwf9A85N-47" vertex="1">
          <mxGeometry width="30" height="30" as="geometry">
            <mxRectangle width="30" height="30" as="alternateBounds" />
          </mxGeometry>
        </mxCell>
        <mxCell id="kB7soZWUzMKkuwf9A85N-49" value="item_id int NOT NULL " style="shape=partialRectangle;overflow=hidden;connectable=0;fillColor=none;top=0;left=0;bottom=0;right=0;align=left;spacingLeft=6;fontStyle=5;strokeWidth=1;" parent="kB7soZWUzMKkuwf9A85N-47" vertex="1">
          <mxGeometry x="30" width="215" height="30" as="geometry">
            <mxRectangle width="215" height="30" as="alternateBounds" />
          </mxGeometry>
        </mxCell>
        <mxCell id="kB7soZWUzMKkuwf9A85N-50" value="" style="shape=partialRectangle;collapsible=0;dropTarget=0;pointerEvents=0;fillColor=none;points=[[0,0.5],[1,0.5]];portConstraint=eastwest;top=0;left=0;right=0;bottom=0;strokeWidth=1;" parent="kB7soZWUzMKkuwf9A85N-46" vertex="1">
          <mxGeometry y="60" width="245" height="30" as="geometry" />
        </mxCell>
        <mxCell id="kB7soZWUzMKkuwf9A85N-51" value="" style="shape=partialRectangle;overflow=hidden;connectable=0;fillColor=none;top=0;left=0;bottom=0;right=0;strokeWidth=1;" parent="kB7soZWUzMKkuwf9A85N-50" vertex="1">
          <mxGeometry width="30" height="30" as="geometry">
            <mxRectangle width="30" height="30" as="alternateBounds" />
          </mxGeometry>
        </mxCell>
        <mxCell id="kB7soZWUzMKkuwf9A85N-52" value="name char(50) NOT NULL" style="shape=partialRectangle;overflow=hidden;connectable=0;fillColor=none;top=0;left=0;bottom=0;right=0;align=left;spacingLeft=6;strokeWidth=1;" parent="kB7soZWUzMKkuwf9A85N-50" vertex="1">
          <mxGeometry x="30" width="215" height="30" as="geometry">
            <mxRectangle width="215" height="30" as="alternateBounds" />
          </mxGeometry>
        </mxCell>
        <mxCell id="kB7soZWUzMKkuwf9A85N-53" value="" style="shape=partialRectangle;collapsible=0;dropTarget=0;pointerEvents=0;fillColor=none;points=[[0,0.5],[1,0.5]];portConstraint=eastwest;top=0;left=0;right=0;bottom=0;strokeWidth=1;" parent="kB7soZWUzMKkuwf9A85N-46" vertex="1">
          <mxGeometry y="90" width="245" height="30" as="geometry" />
        </mxCell>
        <mxCell id="kB7soZWUzMKkuwf9A85N-54" value="" style="shape=partialRectangle;overflow=hidden;connectable=0;fillColor=none;top=0;left=0;bottom=0;right=0;strokeWidth=1;" parent="kB7soZWUzMKkuwf9A85N-53" vertex="1">
          <mxGeometry width="30" height="30" as="geometry">
            <mxRectangle width="30" height="30" as="alternateBounds" />
          </mxGeometry>
        </mxCell>
        <mxCell id="kB7soZWUzMKkuwf9A85N-55" value="description char(50) NOT NULL" style="shape=partialRectangle;overflow=hidden;connectable=0;fillColor=none;top=0;left=0;bottom=0;right=0;align=left;spacingLeft=6;strokeWidth=1;" parent="kB7soZWUzMKkuwf9A85N-53" vertex="1">
          <mxGeometry x="30" width="215" height="30" as="geometry">
            <mxRectangle width="215" height="30" as="alternateBounds" />
          </mxGeometry>
        </mxCell>
        <mxCell id="kB7soZWUzMKkuwf9A85N-56" value="" style="shape=partialRectangle;collapsible=0;dropTarget=0;pointerEvents=0;fillColor=none;points=[[0,0.5],[1,0.5]];portConstraint=eastwest;top=0;left=0;right=0;bottom=0;strokeWidth=1;" parent="kB7soZWUzMKkuwf9A85N-46" vertex="1">
          <mxGeometry y="120" width="245" height="30" as="geometry" />
        </mxCell>
        <mxCell id="kB7soZWUzMKkuwf9A85N-57" value="" style="shape=partialRectangle;overflow=hidden;connectable=0;fillColor=none;top=0;left=0;bottom=0;right=0;strokeWidth=1;" parent="kB7soZWUzMKkuwf9A85N-56" vertex="1">
          <mxGeometry width="30" height="30" as="geometry">
            <mxRectangle width="30" height="30" as="alternateBounds" />
          </mxGeometry>
        </mxCell>
        <mxCell id="kB7soZWUzMKkuwf9A85N-58" value="slotRequired int NOT NULL" style="shape=partialRectangle;overflow=hidden;connectable=0;fillColor=none;top=0;left=0;bottom=0;right=0;align=left;spacingLeft=6;strokeWidth=1;" parent="kB7soZWUzMKkuwf9A85N-56" vertex="1">
          <mxGeometry x="30" width="215" height="30" as="geometry">
            <mxRectangle width="215" height="30" as="alternateBounds" />
          </mxGeometry>
        </mxCell>
        <mxCell id="kB7soZWUzMKkuwf9A85N-59" style="shape=partialRectangle;collapsible=0;dropTarget=0;pointerEvents=0;fillColor=none;points=[[0,0.5],[1,0.5]];portConstraint=eastwest;top=0;left=0;right=0;bottom=0;strokeWidth=1;" parent="kB7soZWUzMKkuwf9A85N-46" vertex="1">
          <mxGeometry y="150" width="245" height="30" as="geometry" />
        </mxCell>
        <mxCell id="kB7soZWUzMKkuwf9A85N-60" style="shape=partialRectangle;overflow=hidden;connectable=0;fillColor=none;top=0;left=0;bottom=0;right=0;strokeWidth=1;" parent="kB7soZWUzMKkuwf9A85N-59" vertex="1">
          <mxGeometry width="30" height="30" as="geometry">
            <mxRectangle width="30" height="30" as="alternateBounds" />
          </mxGeometry>
        </mxCell>
        <mxCell id="kB7soZWUzMKkuwf9A85N-61" style="shape=partialRectangle;overflow=hidden;connectable=0;fillColor=none;top=0;left=0;bottom=0;right=0;align=left;spacingLeft=6;strokeWidth=1;" parent="kB7soZWUzMKkuwf9A85N-59" vertex="1">
          <mxGeometry x="30" width="215" height="30" as="geometry">
            <mxRectangle width="215" height="30" as="alternateBounds" />
          </mxGeometry>
        </mxCell>
        <mxCell id="kB7soZWUzMKkuwf9A85N-62" style="shape=partialRectangle;collapsible=0;dropTarget=0;pointerEvents=0;fillColor=none;points=[[0,0.5],[1,0.5]];portConstraint=eastwest;top=0;left=0;right=0;bottom=0;strokeWidth=1;" parent="kB7soZWUzMKkuwf9A85N-46" vertex="1">
          <mxGeometry y="180" width="245" height="30" as="geometry" />
        </mxCell>
        <mxCell id="kB7soZWUzMKkuwf9A85N-63" style="shape=partialRectangle;overflow=hidden;connectable=0;fillColor=none;top=0;left=0;bottom=0;right=0;strokeWidth=1;" parent="kB7soZWUzMKkuwf9A85N-62" vertex="1">
          <mxGeometry width="30" height="30" as="geometry">
            <mxRectangle width="30" height="30" as="alternateBounds" />
          </mxGeometry>
        </mxCell>
        <mxCell id="kB7soZWUzMKkuwf9A85N-64" style="shape=partialRectangle;overflow=hidden;connectable=0;fillColor=none;top=0;left=0;bottom=0;right=0;align=left;spacingLeft=6;strokeWidth=1;" parent="kB7soZWUzMKkuwf9A85N-62" vertex="1">
          <mxGeometry x="30" width="215" height="30" as="geometry">
            <mxRectangle width="215" height="30" as="alternateBounds" />
          </mxGeometry>
        </mxCell>
        <mxCell id="kB7soZWUzMKkuwf9A85N-65" value="Room" style="shape=table;startSize=30;container=1;collapsible=1;childLayout=tableLayout;fixedRows=1;rowLines=0;fontStyle=1;align=center;resizeLast=1;strokeWidth=1;" parent="1" vertex="1">
          <mxGeometry x="422.5" y="810" width="270" height="110" as="geometry" />
        </mxCell>
        <mxCell id="kB7soZWUzMKkuwf9A85N-66" value="" style="shape=partialRectangle;collapsible=0;dropTarget=0;pointerEvents=0;fillColor=none;points=[[0,0.5],[1,0.5]];portConstraint=eastwest;top=0;left=0;right=0;bottom=1;strokeWidth=1;" parent="kB7soZWUzMKkuwf9A85N-65" vertex="1">
          <mxGeometry y="30" width="270" height="30" as="geometry" />
        </mxCell>
        <mxCell id="kB7soZWUzMKkuwf9A85N-67" value="PK" style="shape=partialRectangle;overflow=hidden;connectable=0;fillColor=none;top=0;left=0;bottom=0;right=0;fontStyle=1;strokeWidth=1;" parent="kB7soZWUzMKkuwf9A85N-66" vertex="1">
          <mxGeometry width="30" height="30" as="geometry">
            <mxRectangle width="30" height="30" as="alternateBounds" />
          </mxGeometry>
        </mxCell>
        <mxCell id="kB7soZWUzMKkuwf9A85N-68" value="room_id int NOT NULL " style="shape=partialRectangle;overflow=hidden;connectable=0;fillColor=none;top=0;left=0;bottom=0;right=0;align=left;spacingLeft=6;fontStyle=5;strokeWidth=1;" parent="kB7soZWUzMKkuwf9A85N-66" vertex="1">
          <mxGeometry x="30" width="240" height="30" as="geometry">
            <mxRectangle width="240" height="30" as="alternateBounds" />
          </mxGeometry>
        </mxCell>
        <mxCell id="kB7soZWUzMKkuwf9A85N-69" value="" style="shape=partialRectangle;collapsible=0;dropTarget=0;pointerEvents=0;fillColor=none;points=[[0,0.5],[1,0.5]];portConstraint=eastwest;top=0;left=0;right=0;bottom=0;strokeWidth=1;" parent="kB7soZWUzMKkuwf9A85N-65" vertex="1">
          <mxGeometry y="60" width="270" height="30" as="geometry" />
        </mxCell>
        <mxCell id="kB7soZWUzMKkuwf9A85N-70" value="" style="shape=partialRectangle;overflow=hidden;connectable=0;fillColor=none;top=0;left=0;bottom=0;right=0;strokeWidth=1;" parent="kB7soZWUzMKkuwf9A85N-69" vertex="1">
          <mxGeometry width="30" height="30" as="geometry">
            <mxRectangle width="30" height="30" as="alternateBounds" />
          </mxGeometry>
        </mxCell>
        <mxCell id="kB7soZWUzMKkuwf9A85N-71" value="name char(50) NOT NULL" style="shape=partialRectangle;overflow=hidden;connectable=0;fillColor=none;top=0;left=0;bottom=0;right=0;align=left;spacingLeft=6;strokeWidth=1;" parent="kB7soZWUzMKkuwf9A85N-69" vertex="1">
          <mxGeometry x="30" width="240" height="30" as="geometry">
            <mxRectangle width="240" height="30" as="alternateBounds" />
          </mxGeometry>
        </mxCell>
        <mxCell id="kB7soZWUzMKkuwf9A85N-72" value="" style="shape=partialRectangle;collapsible=0;dropTarget=0;pointerEvents=0;fillColor=none;points=[[0,0.5],[1,0.5]];portConstraint=eastwest;top=0;left=0;right=0;bottom=0;strokeWidth=1;" parent="kB7soZWUzMKkuwf9A85N-65" vertex="1">
          <mxGeometry y="90" width="270" height="20" as="geometry" />
        </mxCell>
        <mxCell id="kB7soZWUzMKkuwf9A85N-73" value="" style="shape=partialRectangle;overflow=hidden;connectable=0;fillColor=none;top=0;left=0;bottom=0;right=0;strokeWidth=1;" parent="kB7soZWUzMKkuwf9A85N-72" vertex="1">
          <mxGeometry width="30" height="20" as="geometry">
            <mxRectangle width="30" height="20" as="alternateBounds" />
          </mxGeometry>
        </mxCell>
        <mxCell id="kB7soZWUzMKkuwf9A85N-74" value="description char(50) NOT NULL" style="shape=partialRectangle;overflow=hidden;connectable=0;fillColor=none;top=0;left=0;bottom=0;right=0;align=left;spacingLeft=6;strokeWidth=1;" parent="kB7soZWUzMKkuwf9A85N-72" vertex="1">
          <mxGeometry x="30" width="240" height="20" as="geometry">
            <mxRectangle width="240" height="20" as="alternateBounds" />
          </mxGeometry>
        </mxCell>
        <mxCell id="kB7soZWUzMKkuwf9A85N-75" value="Door" style="shape=table;startSize=30;container=1;collapsible=1;childLayout=tableLayout;fixedRows=1;rowLines=0;fontStyle=1;align=center;resizeLast=1;strokeWidth=1;" parent="1" vertex="1">
          <mxGeometry x="410" y="510" width="272.5" height="210" as="geometry" />
        </mxCell>
        <mxCell id="kB7soZWUzMKkuwf9A85N-76" value="" style="shape=partialRectangle;collapsible=0;dropTarget=0;pointerEvents=0;fillColor=none;points=[[0,0.5],[1,0.5]];portConstraint=eastwest;top=0;left=0;right=0;bottom=1;strokeWidth=1;" parent="kB7soZWUzMKkuwf9A85N-75" vertex="1">
          <mxGeometry y="30" width="272.5" height="30" as="geometry" />
        </mxCell>
        <mxCell id="kB7soZWUzMKkuwf9A85N-77" value="PK" style="shape=partialRectangle;overflow=hidden;connectable=0;fillColor=none;top=0;left=0;bottom=0;right=0;fontStyle=1;strokeWidth=1;" parent="kB7soZWUzMKkuwf9A85N-76" vertex="1">
          <mxGeometry width="30" height="30" as="geometry">
            <mxRectangle width="30" height="30" as="alternateBounds" />
          </mxGeometry>
        </mxCell>
        <mxCell id="kB7soZWUzMKkuwf9A85N-78" value="" style="shape=partialRectangle;overflow=hidden;connectable=0;fillColor=none;top=0;left=0;bottom=0;right=0;align=left;spacingLeft=6;fontStyle=5;strokeWidth=1;" parent="kB7soZWUzMKkuwf9A85N-76" vertex="1">
          <mxGeometry x="30" width="242.5" height="30" as="geometry">
            <mxRectangle width="242.5" height="30" as="alternateBounds" />
          </mxGeometry>
        </mxCell>
        <mxCell id="kB7soZWUzMKkuwf9A85N-79" value="" style="shape=partialRectangle;collapsible=0;dropTarget=0;pointerEvents=0;fillColor=none;points=[[0,0.5],[1,0.5]];portConstraint=eastwest;top=0;left=0;right=0;bottom=0;strokeWidth=1;" parent="kB7soZWUzMKkuwf9A85N-75" vertex="1">
          <mxGeometry y="60" width="272.5" height="30" as="geometry" />
        </mxCell>
        <mxCell id="kB7soZWUzMKkuwf9A85N-80" value="FK" style="shape=partialRectangle;overflow=hidden;connectable=0;fillColor=none;top=0;left=0;bottom=0;right=0;strokeWidth=1;" parent="kB7soZWUzMKkuwf9A85N-79" vertex="1">
          <mxGeometry width="30" height="30" as="geometry">
            <mxRectangle width="30" height="30" as="alternateBounds" />
          </mxGeometry>
        </mxCell>
        <mxCell id="kB7soZWUzMKkuwf9A85N-81" value="room1Id int NOT NULL" style="shape=partialRectangle;overflow=hidden;connectable=0;fillColor=none;top=0;left=0;bottom=0;right=0;align=left;spacingLeft=6;strokeWidth=1;" parent="kB7soZWUzMKkuwf9A85N-79" vertex="1">
          <mxGeometry x="30" width="242.5" height="30" as="geometry">
            <mxRectangle width="242.5" height="30" as="alternateBounds" />
          </mxGeometry>
        </mxCell>
        <mxCell id="kB7soZWUzMKkuwf9A85N-82" value="" style="shape=partialRectangle;collapsible=0;dropTarget=0;pointerEvents=0;fillColor=none;points=[[0,0.5],[1,0.5]];portConstraint=eastwest;top=0;left=0;right=0;bottom=0;strokeWidth=1;" parent="kB7soZWUzMKkuwf9A85N-75" vertex="1">
          <mxGeometry y="90" width="272.5" height="30" as="geometry" />
        </mxCell>
        <mxCell id="kB7soZWUzMKkuwf9A85N-83" value="FK" style="shape=partialRectangle;overflow=hidden;connectable=0;fillColor=none;top=0;left=0;bottom=0;right=0;strokeWidth=1;" parent="kB7soZWUzMKkuwf9A85N-82" vertex="1">
          <mxGeometry width="30" height="30" as="geometry">
            <mxRectangle width="30" height="30" as="alternateBounds" />
          </mxGeometry>
        </mxCell>
        <mxCell id="kB7soZWUzMKkuwf9A85N-84" value="" style="shape=partialRectangle;overflow=hidden;connectable=0;fillColor=none;top=0;left=0;bottom=0;right=0;align=left;spacingLeft=6;strokeWidth=1;" parent="kB7soZWUzMKkuwf9A85N-82" vertex="1">
          <mxGeometry x="30" width="242.5" height="30" as="geometry">
            <mxRectangle width="242.5" height="30" as="alternateBounds" />
          </mxGeometry>
        </mxCell>
        <mxCell id="kB7soZWUzMKkuwf9A85N-85" style="shape=partialRectangle;collapsible=0;dropTarget=0;pointerEvents=0;fillColor=none;points=[[0,0.5],[1,0.5]];portConstraint=eastwest;top=0;left=0;right=0;bottom=0;strokeWidth=1;" parent="kB7soZWUzMKkuwf9A85N-75" vertex="1">
          <mxGeometry y="120" width="272.5" height="30" as="geometry" />
        </mxCell>
        <mxCell id="kB7soZWUzMKkuwf9A85N-86" value="FK" style="shape=partialRectangle;overflow=hidden;connectable=0;fillColor=none;top=0;left=0;bottom=0;right=0;strokeWidth=1;" parent="kB7soZWUzMKkuwf9A85N-85" vertex="1">
          <mxGeometry width="30" height="30" as="geometry">
            <mxRectangle width="30" height="30" as="alternateBounds" />
          </mxGeometry>
        </mxCell>
        <mxCell id="kB7soZWUzMKkuwf9A85N-87" style="shape=partialRectangle;overflow=hidden;connectable=0;fillColor=none;top=0;left=0;bottom=0;right=0;align=left;spacingLeft=6;strokeWidth=1;" parent="kB7soZWUzMKkuwf9A85N-85" vertex="1">
          <mxGeometry x="30" width="242.5" height="30" as="geometry">
            <mxRectangle width="242.5" height="30" as="alternateBounds" />
          </mxGeometry>
        </mxCell>
        <mxCell id="kB7soZWUzMKkuwf9A85N-88" style="shape=partialRectangle;collapsible=0;dropTarget=0;pointerEvents=0;fillColor=none;points=[[0,0.5],[1,0.5]];portConstraint=eastwest;top=0;left=0;right=0;bottom=0;strokeWidth=1;" parent="kB7soZWUzMKkuwf9A85N-75" vertex="1">
          <mxGeometry y="150" width="272.5" height="30" as="geometry" />
        </mxCell>
        <mxCell id="kB7soZWUzMKkuwf9A85N-89" style="shape=partialRectangle;overflow=hidden;connectable=0;fillColor=none;top=0;left=0;bottom=0;right=0;strokeWidth=1;" parent="kB7soZWUzMKkuwf9A85N-88" vertex="1">
          <mxGeometry width="30" height="30" as="geometry">
            <mxRectangle width="30" height="30" as="alternateBounds" />
          </mxGeometry>
        </mxCell>
        <mxCell id="kB7soZWUzMKkuwf9A85N-90" value="isLocked boolean NOT NULL" style="shape=partialRectangle;overflow=hidden;connectable=0;fillColor=none;top=0;left=0;bottom=0;right=0;align=left;spacingLeft=6;strokeWidth=1;" parent="kB7soZWUzMKkuwf9A85N-88" vertex="1">
          <mxGeometry x="30" width="242.5" height="30" as="geometry">
            <mxRectangle width="242.5" height="30" as="alternateBounds" />
          </mxGeometry>
        </mxCell>
        <mxCell id="9O_AuB_PkUSJ0llBJqoy-8" style="shape=partialRectangle;collapsible=0;dropTarget=0;pointerEvents=0;fillColor=none;points=[[0,0.5],[1,0.5]];portConstraint=eastwest;top=0;left=0;right=0;bottom=0;strokeWidth=1;" parent="kB7soZWUzMKkuwf9A85N-75" vertex="1">
          <mxGeometry y="180" width="272.5" height="30" as="geometry" />
        </mxCell>
        <mxCell id="9O_AuB_PkUSJ0llBJqoy-9" style="shape=partialRectangle;overflow=hidden;connectable=0;fillColor=none;top=0;left=0;bottom=0;right=0;strokeWidth=1;" parent="9O_AuB_PkUSJ0llBJqoy-8" vertex="1">
          <mxGeometry width="30" height="30" as="geometry">
            <mxRectangle width="30" height="30" as="alternateBounds" />
          </mxGeometry>
        </mxCell>
        <mxCell id="9O_AuB_PkUSJ0llBJqoy-10" value="direction String NOT NULL" style="shape=partialRectangle;overflow=hidden;connectable=0;fillColor=none;top=0;left=0;bottom=0;right=0;align=left;spacingLeft=6;strokeWidth=1;" parent="9O_AuB_PkUSJ0llBJqoy-8" vertex="1">
          <mxGeometry x="30" width="242.5" height="30" as="geometry">
            <mxRectangle width="242.5" height="30" as="alternateBounds" />
          </mxGeometry>
        </mxCell>
        <mxCell id="kB7soZWUzMKkuwf9A85N-91" value="room1Id + room2Id int NOT NULL" style="shape=partialRectangle;overflow=hidden;connectable=0;fillColor=none;top=0;left=0;bottom=0;right=0;align=left;spacingLeft=6;strokeWidth=1;" parent="1" vertex="1">
          <mxGeometry x="440" y="540" width="240" height="30" as="geometry">
            <mxRectangle width="240" height="30" as="alternateBounds" />
          </mxGeometry>
        </mxCell>
        <mxCell id="kB7soZWUzMKkuwf9A85N-92" value="room2Id int NOT NULL" style="shape=partialRectangle;overflow=hidden;connectable=0;fillColor=none;top=0;left=0;bottom=0;right=0;align=left;spacingLeft=6;strokeWidth=1;" parent="1" vertex="1">
          <mxGeometry x="440" y="600" width="240" height="30" as="geometry">
            <mxRectangle width="240" height="30" as="alternateBounds" />
          </mxGeometry>
        </mxCell>
        <mxCell id="kB7soZWUzMKkuwf9A85N-93" value="item_id int NOT NULL" style="shape=partialRectangle;overflow=hidden;connectable=0;fillColor=none;top=0;left=0;bottom=0;right=0;align=left;spacingLeft=6;strokeWidth=1;" parent="1" vertex="1">
          <mxGeometry x="440" y="630" width="240" height="30" as="geometry">
            <mxRectangle width="240" height="30" as="alternateBounds" />
          </mxGeometry>
        </mxCell>
        <mxCell id="kB7soZWUzMKkuwf9A85N-94" value="FK1" style="shape=partialRectangle;overflow=hidden;connectable=0;fillColor=none;top=0;left=0;bottom=0;right=0;fontStyle=1;strokeWidth=1;" parent="1" vertex="1">
          <mxGeometry x="50" y="890" width="30" height="30" as="geometry">
            <mxRectangle width="30" height="30" as="alternateBounds" />
          </mxGeometry>
        </mxCell>
        <mxCell id="kB7soZWUzMKkuwf9A85N-95" value="FK2" style="shape=partialRectangle;overflow=hidden;connectable=0;fillColor=none;top=0;left=0;bottom=0;right=0;fontStyle=1;strokeWidth=1;" parent="1" vertex="1">
          <mxGeometry x="50" y="920" width="30" height="30" as="geometry">
            <mxRectangle width="30" height="30" as="alternateBounds" />
          </mxGeometry>
        </mxCell>
        <mxCell id="kB7soZWUzMKkuwf9A85N-96" value="room_id int NULL " style="shape=partialRectangle;overflow=hidden;connectable=0;fillColor=none;top=0;left=0;bottom=0;right=0;align=left;spacingLeft=6;fontStyle=5;strokeWidth=1;" parent="1" vertex="1">
          <mxGeometry x="77.5" y="890" width="240" height="30" as="geometry">
            <mxRectangle width="240" height="30" as="alternateBounds" />
          </mxGeometry>
        </mxCell>
        <mxCell id="kB7soZWUzMKkuwf9A85N-97" value="bag_id int NULL " style="shape=partialRectangle;overflow=hidden;connectable=0;fillColor=none;top=0;left=0;bottom=0;right=0;align=left;spacingLeft=6;fontStyle=5;strokeWidth=1;" parent="1" vertex="1">
          <mxGeometry x="82.5" y="920" width="170" height="30" as="geometry">
            <mxRectangle width="170" height="30" as="alternateBounds" />
          </mxGeometry>
        </mxCell>
        <mxCell id="kB7soZWUzMKkuwf9A85N-98" value="room_id int NOT NULL " style="shape=partialRectangle;overflow=hidden;connectable=0;fillColor=none;top=0;left=0;bottom=0;right=0;align=left;spacingLeft=6;fontStyle=5;strokeWidth=1;" parent="1" vertex="1">
          <mxGeometry x="832.5" y="1070" width="240" height="30" as="geometry">
            <mxRectangle width="240" height="30" as="alternateBounds" />
          </mxGeometry>
        </mxCell>
        <mxCell id="kB7soZWUzMKkuwf9A85N-99" value="FK1" style="shape=partialRectangle;overflow=hidden;connectable=0;fillColor=none;top=0;left=0;bottom=0;right=0;fontStyle=1;strokeWidth=1;" parent="1" vertex="1">
          <mxGeometry x="807.5" y="1070" width="30" height="30" as="geometry">
            <mxRectangle width="30" height="30" as="alternateBounds" />
          </mxGeometry>
        </mxCell>
        <mxCell id="kB7soZWUzMKkuwf9A85N-100" value="AnimalWithWings" style="shape=table;startSize=30;container=1;collapsible=1;childLayout=tableLayout;fixedRows=1;rowLines=0;fontStyle=1;align=center;resizeLast=1;html=1;" parent="1" vertex="1">
          <mxGeometry x="1200" y="850" width="270.00000000000045" height="90" as="geometry" />
        </mxCell>
        <mxCell id="kB7soZWUzMKkuwf9A85N-101" value="" style="shape=tableRow;horizontal=0;startSize=0;swimlaneHead=0;swimlaneBody=0;fillColor=none;collapsible=0;dropTarget=0;points=[[0,0.5],[1,0.5]];portConstraint=eastwest;top=0;left=0;right=0;bottom=1;" parent="kB7soZWUzMKkuwf9A85N-100" vertex="1">
          <mxGeometry y="30" width="270.00000000000045" height="30" as="geometry" />
        </mxCell>
        <mxCell id="kB7soZWUzMKkuwf9A85N-102" value="PK" style="shape=partialRectangle;connectable=0;fillColor=none;top=0;left=0;bottom=0;right=0;fontStyle=1;overflow=hidden;whiteSpace=wrap;html=1;" parent="kB7soZWUzMKkuwf9A85N-101" vertex="1">
          <mxGeometry width="30" height="30" as="geometry">
            <mxRectangle width="30" height="30" as="alternateBounds" />
          </mxGeometry>
        </mxCell>
        <mxCell id="kB7soZWUzMKkuwf9A85N-103" value="&lt;span style=&quot;text-wrap: nowrap;&quot;&gt;animal_id&amp;nbsp;int NOT NULL&lt;/span&gt;" style="shape=partialRectangle;connectable=0;fillColor=none;top=0;left=0;bottom=0;right=0;align=left;spacingLeft=6;fontStyle=5;overflow=hidden;whiteSpace=wrap;html=1;" parent="kB7soZWUzMKkuwf9A85N-101" vertex="1">
          <mxGeometry x="30" width="240.00000000000045" height="30" as="geometry">
            <mxRectangle width="240.00000000000045" height="30" as="alternateBounds" />
          </mxGeometry>
        </mxCell>
        <mxCell id="kB7soZWUzMKkuwf9A85N-104" value="" style="shape=tableRow;horizontal=0;startSize=0;swimlaneHead=0;swimlaneBody=0;fillColor=none;collapsible=0;dropTarget=0;points=[[0,0.5],[1,0.5]];portConstraint=eastwest;top=0;left=0;right=0;bottom=0;" parent="kB7soZWUzMKkuwf9A85N-100" vertex="1">
          <mxGeometry y="60" width="270.00000000000045" height="30" as="geometry" />
        </mxCell>
        <mxCell id="kB7soZWUzMKkuwf9A85N-105" value="" style="shape=partialRectangle;connectable=0;fillColor=none;top=0;left=0;bottom=0;right=0;editable=1;overflow=hidden;whiteSpace=wrap;html=1;" parent="kB7soZWUzMKkuwf9A85N-104" vertex="1">
          <mxGeometry width="30" height="30" as="geometry">
            <mxRectangle width="30" height="30" as="alternateBounds" />
          </mxGeometry>
        </mxCell>
        <mxCell id="kB7soZWUzMKkuwf9A85N-106" value="&lt;span style=&quot;text-wrap: nowrap;&quot;&gt;wingSpan float NOT NULL&lt;/span&gt;" style="shape=partialRectangle;connectable=0;fillColor=none;top=0;left=0;bottom=0;right=0;align=left;spacingLeft=6;overflow=hidden;whiteSpace=wrap;html=1;" parent="kB7soZWUzMKkuwf9A85N-104" vertex="1">
          <mxGeometry x="30" width="240.00000000000045" height="30" as="geometry">
            <mxRectangle width="240.00000000000045" height="30" as="alternateBounds" />
          </mxGeometry>
        </mxCell>
        <mxCell id="kB7soZWUzMKkuwf9A85N-107" value="AnimalWithTail" style="shape=table;startSize=40;container=1;collapsible=1;childLayout=tableLayout;fixedRows=1;rowLines=0;fontStyle=1;align=center;resizeLast=1;html=1;" parent="1" vertex="1">
          <mxGeometry x="1210" y="1000" width="270.00000000000045" height="100" as="geometry" />
        </mxCell>
        <mxCell id="kB7soZWUzMKkuwf9A85N-108" value="" style="shape=tableRow;horizontal=0;startSize=0;swimlaneHead=0;swimlaneBody=0;fillColor=none;collapsible=0;dropTarget=0;points=[[0,0.5],[1,0.5]];portConstraint=eastwest;top=0;left=0;right=0;bottom=1;" parent="kB7soZWUzMKkuwf9A85N-107" vertex="1">
          <mxGeometry y="40" width="270.00000000000045" height="30" as="geometry" />
        </mxCell>
        <mxCell id="kB7soZWUzMKkuwf9A85N-109" value="PK" style="shape=partialRectangle;connectable=0;fillColor=none;top=0;left=0;bottom=0;right=0;fontStyle=1;overflow=hidden;whiteSpace=wrap;html=1;" parent="kB7soZWUzMKkuwf9A85N-108" vertex="1">
          <mxGeometry width="30" height="30" as="geometry">
            <mxRectangle width="30" height="30" as="alternateBounds" />
          </mxGeometry>
        </mxCell>
        <mxCell id="kB7soZWUzMKkuwf9A85N-110" value="&lt;span style=&quot;text-wrap: nowrap;&quot;&gt;animal_id&amp;nbsp;int NOT NULL&lt;/span&gt;" style="shape=partialRectangle;connectable=0;fillColor=none;top=0;left=0;bottom=0;right=0;align=left;spacingLeft=6;fontStyle=5;overflow=hidden;whiteSpace=wrap;html=1;" parent="kB7soZWUzMKkuwf9A85N-108" vertex="1">
          <mxGeometry x="30" width="240.00000000000045" height="30" as="geometry">
            <mxRectangle width="240.00000000000045" height="30" as="alternateBounds" />
          </mxGeometry>
        </mxCell>
        <mxCell id="kB7soZWUzMKkuwf9A85N-111" value="" style="shape=tableRow;horizontal=0;startSize=0;swimlaneHead=0;swimlaneBody=0;fillColor=none;collapsible=0;dropTarget=0;points=[[0,0.5],[1,0.5]];portConstraint=eastwest;top=0;left=0;right=0;bottom=0;" parent="kB7soZWUzMKkuwf9A85N-107" vertex="1">
          <mxGeometry y="70" width="270.00000000000045" height="30" as="geometry" />
        </mxCell>
        <mxCell id="kB7soZWUzMKkuwf9A85N-112" value="" style="shape=partialRectangle;connectable=0;fillColor=none;top=0;left=0;bottom=0;right=0;editable=1;overflow=hidden;whiteSpace=wrap;html=1;" parent="kB7soZWUzMKkuwf9A85N-111" vertex="1">
          <mxGeometry width="30" height="30" as="geometry">
            <mxRectangle width="30" height="30" as="alternateBounds" />
          </mxGeometry>
        </mxCell>
        <mxCell id="kB7soZWUzMKkuwf9A85N-113" value="&lt;span style=&quot;text-wrap: nowrap;&quot;&gt;tailLenght float NOT NULL&lt;/span&gt;" style="shape=partialRectangle;connectable=0;fillColor=none;top=0;left=0;bottom=0;right=0;align=left;spacingLeft=6;overflow=hidden;whiteSpace=wrap;html=1;" parent="kB7soZWUzMKkuwf9A85N-111" vertex="1">
          <mxGeometry x="30" width="240.00000000000045" height="30" as="geometry">
            <mxRectangle width="240.00000000000045" height="30" as="alternateBounds" />
          </mxGeometry>
        </mxCell>
        <mxCell id="kB7soZWUzMKkuwf9A85N-114" value="" style="edgeStyle=entityRelationEdgeStyle;fontSize=12;html=1;endArrow=ERmandOne;startArrow=ERmandOne;rounded=0;exitX=1;exitY=0.5;exitDx=0;exitDy=0;entryX=0;entryY=0.5;entryDx=0;entryDy=0;" parent="1" source="kB7soZWUzMKkuwf9A85N-2" target="kB7soZWUzMKkuwf9A85N-37" edge="1">
          <mxGeometry width="100" height="100" relative="1" as="geometry">
            <mxPoint x="310" y="1200" as="sourcePoint" />
            <mxPoint x="453" y="1130" as="targetPoint" />
          </mxGeometry>
        </mxCell>
        <mxCell id="kB7soZWUzMKkuwf9A85N-115" value="" style="fontSize=12;html=1;endArrow=ERoneToMany;rounded=0;" parent="1" source="kB7soZWUzMKkuwf9A85N-1" edge="1">
          <mxGeometry width="100" height="100" relative="1" as="geometry">
            <mxPoint x="890" y="1250" as="sourcePoint" />
            <mxPoint x="173" y="950" as="targetPoint" />
          </mxGeometry>
        </mxCell>
        <mxCell id="kB7soZWUzMKkuwf9A85N-116" value="" style="edgeStyle=entityRelationEdgeStyle;fontSize=12;html=1;endArrow=ERoneToMany;rounded=0;exitX=0;exitY=0.5;exitDx=0;exitDy=0;entryX=1.003;entryY=0.086;entryDx=0;entryDy=0;entryPerimeter=0;" parent="1" source="kB7soZWUzMKkuwf9A85N-66" target="kB7soZWUzMKkuwf9A85N-46" edge="1">
          <mxGeometry width="100" height="100" relative="1" as="geometry">
            <mxPoint x="442.5" y="1030" as="sourcePoint" />
            <mxPoint x="542.5" y="930" as="targetPoint" />
            <Array as="points">
              <mxPoint x="410" y="840" />
            </Array>
          </mxGeometry>
        </mxCell>
        <mxCell id="kB7soZWUzMKkuwf9A85N-117" value="" style="edgeStyle=entityRelationEdgeStyle;fontSize=12;html=1;endArrow=ERoneToMany;rounded=0;exitX=1.003;exitY=0.13;exitDx=0;exitDy=0;exitPerimeter=0;entryX=0.006;entryY=0.055;entryDx=0;entryDy=0;entryPerimeter=0;" parent="1" source="kB7soZWUzMKkuwf9A85N-65" target="kB7soZWUzMKkuwf9A85N-11" edge="1">
          <mxGeometry width="100" height="100" relative="1" as="geometry">
            <mxPoint x="522.5" y="940" as="sourcePoint" />
            <mxPoint x="622.5" y="840" as="targetPoint" />
          </mxGeometry>
        </mxCell>
        <mxCell id="kB7soZWUzMKkuwf9A85N-118" value="" style="fontSize=12;html=1;endArrow=ERoneToMany;rounded=0;exitX=0.528;exitY=-0.018;exitDx=0;exitDy=0;exitPerimeter=0;entryX=0.572;entryY=1.067;entryDx=0;entryDy=0;entryPerimeter=0;" parent="1" source="kB7soZWUzMKkuwf9A85N-65" target="9O_AuB_PkUSJ0llBJqoy-8" edge="1">
          <mxGeometry width="100" height="100" relative="1" as="geometry">
            <mxPoint x="420" y="780" as="sourcePoint" />
            <mxPoint x="570" y="730" as="targetPoint" />
          </mxGeometry>
        </mxCell>
        <mxCell id="kB7soZWUzMKkuwf9A85N-121" value="Room" style="whiteSpace=wrap;html=1;align=center;fontStyle=1" parent="1" vertex="1">
          <mxGeometry x="602.5" y="1700" width="140" height="70" as="geometry" />
        </mxCell>
        <mxCell id="kB7soZWUzMKkuwf9A85N-122" value="Item" style="whiteSpace=wrap;html=1;align=center;fontStyle=1" parent="1" vertex="1">
          <mxGeometry x="585" y="1960" width="100" height="40" as="geometry" />
        </mxCell>
        <mxCell id="kB7soZWUzMKkuwf9A85N-123" value="Animal" style="whiteSpace=wrap;html=1;align=center;fontStyle=1" parent="1" vertex="1">
          <mxGeometry x="1072.5" y="1690" width="100" height="40" as="geometry" />
        </mxCell>
        <mxCell id="kB7soZWUzMKkuwf9A85N-124" value="Door" style="whiteSpace=wrap;html=1;align=center;fontStyle=1" parent="1" vertex="1">
          <mxGeometry x="1000" y="1960" width="100" height="40" as="geometry" />
        </mxCell>
        <mxCell id="kB7soZWUzMKkuwf9A85N-125" value="" style="rounded=0;orthogonalLoop=1;jettySize=auto;html=1;strokeColor=none;fontStyle=1" parent="1" source="kB7soZWUzMKkuwf9A85N-154" target="kB7soZWUzMKkuwf9A85N-131" edge="1">
          <mxGeometry relative="1" as="geometry" />
        </mxCell>
        <mxCell id="kB7soZWUzMKkuwf9A85N-126" value="Bag" style="whiteSpace=wrap;html=1;align=center;fontStyle=1" parent="1" vertex="1">
          <mxGeometry x="322.5" y="1960" width="100" height="40" as="geometry" />
        </mxCell>
        <mxCell id="kB7soZWUzMKkuwf9A85N-127" value="Player" style="whiteSpace=wrap;html=1;align=center;fontStyle=1" parent="1" vertex="1">
          <mxGeometry x="72.5" y="1960" width="100" height="40" as="geometry" />
        </mxCell>
        <mxCell id="kB7soZWUzMKkuwf9A85N-128" value="" style="endArrow=none;html=1;rounded=0;exitX=1;exitY=0.5;exitDx=0;exitDy=0;fontStyle=1" parent="1" source="kB7soZWUzMKkuwf9A85N-122" edge="1">
          <mxGeometry relative="1" as="geometry">
            <mxPoint x="742.5" y="1979.58" as="sourcePoint" />
            <mxPoint x="817.5" y="1980" as="targetPoint" />
          </mxGeometry>
        </mxCell>
        <mxCell id="kB7soZWUzMKkuwf9A85N-129" value="&lt;span&gt;Owns&lt;/span&gt;" style="rhombus;whiteSpace=wrap;html=1;fontStyle=1" parent="1" vertex="1">
          <mxGeometry x="212.5" y="1960" width="80" height="40" as="geometry" />
        </mxCell>
        <mxCell id="kB7soZWUzMKkuwf9A85N-130" value="" style="endArrow=none;html=1;rounded=0;entryX=0;entryY=0.5;entryDx=0;entryDy=0;fontStyle=1" parent="1" target="kB7soZWUzMKkuwf9A85N-122" edge="1">
          <mxGeometry relative="1" as="geometry">
            <mxPoint x="517.5" y="1979.5" as="sourcePoint" />
            <mxPoint x="567.5" y="1979.92" as="targetPoint" />
          </mxGeometry>
        </mxCell>
        <mxCell id="kB7soZWUzMKkuwf9A85N-131" value="Contains" style="rhombus;whiteSpace=wrap;html=1;fontStyle=1" parent="1" vertex="1">
          <mxGeometry x="472.5" y="1960" width="80" height="40" as="geometry" />
        </mxCell>
        <mxCell id="kB7soZWUzMKkuwf9A85N-134" value="" style="endArrow=none;html=1;rounded=0;fontStyle=1" parent="1" edge="1">
          <mxGeometry relative="1" as="geometry">
            <mxPoint x="1000" y="1979.66" as="sourcePoint" />
            <mxPoint x="882.4987804878047" y="1979.6556097560976" as="targetPoint" />
          </mxGeometry>
        </mxCell>
        <mxCell id="kB7soZWUzMKkuwf9A85N-135" value="" style="endArrow=none;html=1;rounded=0;fontStyle=1" parent="1" edge="1">
          <mxGeometry width="50" height="50" relative="1" as="geometry">
            <mxPoint x="742.5" y="1710" as="sourcePoint" />
            <mxPoint x="912.5" y="1710" as="targetPoint" />
          </mxGeometry>
        </mxCell>
        <mxCell id="kB7soZWUzMKkuwf9A85N-136" value="&lt;span&gt;Contains&lt;/span&gt;" style="rhombus;whiteSpace=wrap;html=1;fontStyle=1" parent="1" vertex="1">
          <mxGeometry x="907.5" y="1690" width="80" height="40" as="geometry" />
        </mxCell>
        <mxCell id="kB7soZWUzMKkuwf9A85N-139" value="AnimalWithWings" style="whiteSpace=wrap;html=1;align=center;fontStyle=1" parent="1" vertex="1">
          <mxGeometry x="1272.5" y="1610" width="120" height="40" as="geometry" />
        </mxCell>
        <mxCell id="kB7soZWUzMKkuwf9A85N-140" value="AnimalWithTail" style="whiteSpace=wrap;html=1;align=center;fontStyle=1" parent="1" vertex="1">
          <mxGeometry x="1272.5" y="1750" width="120" height="40" as="geometry" />
        </mxCell>
        <mxCell id="kB7soZWUzMKkuwf9A85N-142" value="" style="endArrow=none;html=1;rounded=0;entryX=0.5;entryY=0;entryDx=0;entryDy=0;fontStyle=1" parent="1" source="kB7soZWUzMKkuwf9A85N-145" target="kB7soZWUzMKkuwf9A85N-124" edge="1">
          <mxGeometry relative="1" as="geometry">
            <mxPoint x="812.5000000000001" y="1750" as="sourcePoint" />
            <mxPoint x="812.5000000000001" y="1810" as="targetPoint" />
            <Array as="points" />
          </mxGeometry>
        </mxCell>
        <mxCell id="kB7soZWUzMKkuwf9A85N-143" value="&lt;span&gt;Unlocks&lt;/span&gt;" style="rhombus;whiteSpace=wrap;html=1;fontStyle=1" parent="1" vertex="1">
          <mxGeometry x="802.5" y="1960" width="80" height="40" as="geometry" />
        </mxCell>
        <mxCell id="kB7soZWUzMKkuwf9A85N-144" value="" style="endArrow=none;html=1;rounded=0;fontStyle=1;exitX=1;exitY=1;exitDx=0;exitDy=0;" parent="1" target="kB7soZWUzMKkuwf9A85N-145" edge="1" source="kB7soZWUzMKkuwf9A85N-121">
          <mxGeometry relative="1" as="geometry">
            <mxPoint x="812.5000000000001" y="1750" as="sourcePoint" />
            <mxPoint x="812.5000000000001" y="1810" as="targetPoint" />
            <Array as="points" />
          </mxGeometry>
        </mxCell>
        <mxCell id="kB7soZWUzMKkuwf9A85N-145" value="&lt;span&gt;Contains&lt;/span&gt;" style="rhombus;whiteSpace=wrap;html=1;fontStyle=1" parent="1" vertex="1">
          <mxGeometry x="837.5" y="1830" width="80" height="40" as="geometry" />
        </mxCell>
        <mxCell id="kB7soZWUzMKkuwf9A85N-147" value="" style="endArrow=none;html=1;rounded=0;entryX=0;entryY=0.5;entryDx=0;entryDy=0;fontStyle=1" parent="1" target="kB7soZWUzMKkuwf9A85N-123" edge="1">
          <mxGeometry relative="1" as="geometry">
            <mxPoint x="987.5" y="1709.5" as="sourcePoint" />
            <mxPoint x="1037.5" y="1709.92" as="targetPoint" />
          </mxGeometry>
        </mxCell>
        <mxCell id="kB7soZWUzMKkuwf9A85N-148" value="" style="endArrow=none;html=1;rounded=0;entryX=0.5;entryY=0;entryDx=0;entryDy=0;exitX=0.5;exitY=1;exitDx=0;exitDy=0;fontStyle=1" parent="1" source="kB7soZWUzMKkuwf9A85N-150" edge="1">
          <mxGeometry relative="1" as="geometry">
            <mxPoint x="632.52" y="1773.9899999999998" as="sourcePoint" />
            <mxPoint x="632.5" y="1960" as="targetPoint" />
          </mxGeometry>
        </mxCell>
        <mxCell id="kB7soZWUzMKkuwf9A85N-149" value="" style="endArrow=none;html=1;rounded=0;entryX=0.5;entryY=0;entryDx=0;entryDy=0;exitX=0.143;exitY=1.057;exitDx=0;exitDy=0;exitPerimeter=0;fontStyle=1" parent="1" target="kB7soZWUzMKkuwf9A85N-150" edge="1">
          <mxGeometry relative="1" as="geometry">
            <mxPoint x="632.52" y="1773.9899999999998" as="sourcePoint" />
            <mxPoint x="632.5" y="1960" as="targetPoint" />
          </mxGeometry>
        </mxCell>
        <mxCell id="kB7soZWUzMKkuwf9A85N-150" value="&lt;span&gt;Contains&lt;/span&gt;" style="rhombus;whiteSpace=wrap;html=1;fontStyle=1" parent="1" vertex="1">
          <mxGeometry x="592.5" y="1840" width="80" height="40" as="geometry" />
        </mxCell>
        <mxCell id="kB7soZWUzMKkuwf9A85N-151" value="" style="line;strokeWidth=1;rotatable=0;dashed=0;labelPosition=right;align=left;verticalAlign=middle;spacingTop=0;spacingLeft=6;points=[];portConstraint=eastwest;fontStyle=1" parent="1" vertex="1">
          <mxGeometry x="172.5" y="1975" width="40" height="10" as="geometry" />
        </mxCell>
        <mxCell id="kB7soZWUzMKkuwf9A85N-152" value="" style="line;strokeWidth=1;rotatable=0;dashed=0;labelPosition=right;align=left;verticalAlign=middle;spacingTop=0;spacingLeft=6;points=[];portConstraint=eastwest;fontStyle=1" parent="1" vertex="1">
          <mxGeometry x="292.5" y="1975" width="30" height="10" as="geometry" />
        </mxCell>
        <mxCell id="kB7soZWUzMKkuwf9A85N-153" value="" style="rounded=0;orthogonalLoop=1;jettySize=auto;html=1;strokeColor=none;fontStyle=1" parent="1" source="kB7soZWUzMKkuwf9A85N-126" target="kB7soZWUzMKkuwf9A85N-154" edge="1">
          <mxGeometry relative="1" as="geometry">
            <mxPoint x="422.5" y="1980" as="sourcePoint" />
            <mxPoint x="472.5" y="1980" as="targetPoint" />
          </mxGeometry>
        </mxCell>
        <mxCell id="kB7soZWUzMKkuwf9A85N-154" value="" style="line;strokeWidth=1;rotatable=0;dashed=0;labelPosition=right;align=left;verticalAlign=middle;spacingTop=0;spacingLeft=6;points=[];portConstraint=eastwest;fontStyle=1" parent="1" vertex="1">
          <mxGeometry x="422.5" y="1975" width="50" height="10" as="geometry" />
        </mxCell>
        <mxCell id="kB7soZWUzMKkuwf9A85N-155" value="(1,1)" style="text;html=1;align=center;verticalAlign=middle;resizable=0;points=[];autosize=1;strokeColor=none;fillColor=none;fontStyle=1" parent="1" vertex="1">
          <mxGeometry x="162.5" y="1975" width="50" height="30" as="geometry" />
        </mxCell>
        <mxCell id="kB7soZWUzMKkuwf9A85N-156" value="(1,1)" style="text;html=1;align=center;verticalAlign=middle;resizable=0;points=[];autosize=1;strokeColor=none;fillColor=none;fontStyle=1" parent="1" vertex="1">
          <mxGeometry x="282.5" y="1975" width="50" height="30" as="geometry" />
        </mxCell>
        <mxCell id="kB7soZWUzMKkuwf9A85N-157" value="(0,N)" style="text;html=1;align=center;verticalAlign=middle;resizable=0;points=[];autosize=1;strokeColor=none;fillColor=none;fontStyle=1" parent="1" vertex="1">
          <mxGeometry x="415" y="1975" width="50" height="30" as="geometry" />
        </mxCell>
        <mxCell id="kB7soZWUzMKkuwf9A85N-158" value="(0,1)" style="text;html=1;align=center;verticalAlign=middle;resizable=0;points=[];autosize=1;strokeColor=none;fillColor=none;fontStyle=1" parent="1" vertex="1">
          <mxGeometry x="542.5" y="1975" width="50" height="30" as="geometry" />
        </mxCell>
        <mxCell id="kB7soZWUzMKkuwf9A85N-159" value="(0,1)" style="text;html=1;align=center;verticalAlign=middle;resizable=0;points=[];autosize=1;strokeColor=none;fillColor=none;fontStyle=1" parent="1" vertex="1">
          <mxGeometry x="677.5" y="1975" width="50" height="30" as="geometry" />
        </mxCell>
        <mxCell id="kB7soZWUzMKkuwf9A85N-160" value="(1,1)" style="text;html=1;align=center;verticalAlign=middle;resizable=0;points=[];autosize=1;strokeColor=none;fillColor=none;fontStyle=1" parent="1" vertex="1">
          <mxGeometry x="970" y="1930" width="50" height="30" as="geometry" />
        </mxCell>
        <mxCell id="kB7soZWUzMKkuwf9A85N-161" value="(1,N)" style="text;html=1;align=center;verticalAlign=middle;resizable=0;points=[];autosize=1;strokeColor=none;fillColor=none;fontStyle=1" parent="1" vertex="1">
          <mxGeometry x="700" y="1770" width="50" height="30" as="geometry" />
        </mxCell>
        <mxCell id="kB7soZWUzMKkuwf9A85N-163" value="(0,N)" style="text;html=1;align=center;verticalAlign=middle;resizable=0;points=[];autosize=1;strokeColor=none;fillColor=none;fontStyle=1" parent="1" vertex="1">
          <mxGeometry x="592.5" y="1765" width="50" height="30" as="geometry" />
        </mxCell>
        <mxCell id="kB7soZWUzMKkuwf9A85N-164" value="(0,1)" style="text;html=1;align=center;verticalAlign=middle;resizable=0;points=[];autosize=1;strokeColor=none;fillColor=none;fontStyle=1" parent="1" vertex="1">
          <mxGeometry x="592.5" y="1930" width="50" height="30" as="geometry" />
        </mxCell>
        <mxCell id="kB7soZWUzMKkuwf9A85N-165" value="(0,N)" style="text;html=1;align=center;verticalAlign=middle;resizable=0;points=[];autosize=1;strokeColor=none;fillColor=none;fontStyle=1" parent="1" vertex="1">
          <mxGeometry x="732.5" y="1705" width="50" height="30" as="geometry" />
        </mxCell>
        <mxCell id="kB7soZWUzMKkuwf9A85N-166" value="(0,1)" style="text;html=1;align=center;verticalAlign=middle;resizable=0;points=[];autosize=1;strokeColor=none;fillColor=none;fontStyle=1" parent="1" vertex="1">
          <mxGeometry x="1032.5" y="1705" width="50" height="30" as="geometry" />
        </mxCell>
        <mxCell id="kB7soZWUzMKkuwf9A85N-167" value="Lion" style="shape=table;startSize=40;container=1;collapsible=1;childLayout=tableLayout;fixedRows=1;rowLines=0;fontStyle=1;align=center;resizeLast=1;html=1;" parent="1" vertex="1">
          <mxGeometry x="1580" y="940" width="220" height="100" as="geometry" />
        </mxCell>
        <mxCell id="kB7soZWUzMKkuwf9A85N-168" value="" style="shape=tableRow;horizontal=0;startSize=0;swimlaneHead=0;swimlaneBody=0;fillColor=none;collapsible=0;dropTarget=0;points=[[0,0.5],[1,0.5]];portConstraint=eastwest;top=0;left=0;right=0;bottom=1;" parent="kB7soZWUzMKkuwf9A85N-167" vertex="1">
          <mxGeometry y="40" width="220" height="30" as="geometry" />
        </mxCell>
        <mxCell id="kB7soZWUzMKkuwf9A85N-169" value="PK" style="shape=partialRectangle;connectable=0;fillColor=none;top=0;left=0;bottom=0;right=0;fontStyle=1;overflow=hidden;whiteSpace=wrap;html=1;" parent="kB7soZWUzMKkuwf9A85N-168" vertex="1">
          <mxGeometry width="30" height="30" as="geometry">
            <mxRectangle width="30" height="30" as="alternateBounds" />
          </mxGeometry>
        </mxCell>
        <mxCell id="kB7soZWUzMKkuwf9A85N-170" value="&lt;span style=&quot;text-wrap: nowrap;&quot;&gt;animal_id&amp;nbsp;int NOT NULL&lt;/span&gt;" style="shape=partialRectangle;connectable=0;fillColor=none;top=0;left=0;bottom=0;right=0;align=left;spacingLeft=6;fontStyle=5;overflow=hidden;whiteSpace=wrap;html=1;" parent="kB7soZWUzMKkuwf9A85N-168" vertex="1">
          <mxGeometry x="30" width="190" height="30" as="geometry">
            <mxRectangle width="190" height="30" as="alternateBounds" />
          </mxGeometry>
        </mxCell>
        <mxCell id="kB7soZWUzMKkuwf9A85N-171" value="" style="shape=tableRow;horizontal=0;startSize=0;swimlaneHead=0;swimlaneBody=0;fillColor=none;collapsible=0;dropTarget=0;points=[[0,0.5],[1,0.5]];portConstraint=eastwest;top=0;left=0;right=0;bottom=0;" parent="kB7soZWUzMKkuwf9A85N-167" vertex="1">
          <mxGeometry y="70" width="220" height="30" as="geometry" />
        </mxCell>
        <mxCell id="kB7soZWUzMKkuwf9A85N-172" value="FK" style="shape=partialRectangle;connectable=0;fillColor=none;top=0;left=0;bottom=0;right=0;editable=1;overflow=hidden;whiteSpace=wrap;html=1;" parent="kB7soZWUzMKkuwf9A85N-171" vertex="1">
          <mxGeometry width="30" height="30" as="geometry">
            <mxRectangle width="30" height="30" as="alternateBounds" />
          </mxGeometry>
        </mxCell>
        <mxCell id="kB7soZWUzMKkuwf9A85N-173" value="&lt;span style=&quot;font-weight: 700; text-wrap: nowrap; text-decoration-line: underline;&quot;&gt;animal_id&amp;nbsp;int NOT NULL&lt;/span&gt;" style="shape=partialRectangle;connectable=0;fillColor=none;top=0;left=0;bottom=0;right=0;align=left;spacingLeft=6;overflow=hidden;whiteSpace=wrap;html=1;" parent="kB7soZWUzMKkuwf9A85N-171" vertex="1">
          <mxGeometry x="30" width="190" height="30" as="geometry">
            <mxRectangle width="190" height="30" as="alternateBounds" />
          </mxGeometry>
        </mxCell>
        <mxCell id="kB7soZWUzMKkuwf9A85N-174" value="Tiger" style="shape=table;startSize=40;container=1;collapsible=1;childLayout=tableLayout;fixedRows=1;rowLines=0;fontStyle=1;align=center;resizeLast=1;html=1;" parent="1" vertex="1">
          <mxGeometry x="1580" y="1100" width="220" height="100" as="geometry" />
        </mxCell>
        <mxCell id="kB7soZWUzMKkuwf9A85N-175" value="" style="shape=tableRow;horizontal=0;startSize=0;swimlaneHead=0;swimlaneBody=0;fillColor=none;collapsible=0;dropTarget=0;points=[[0,0.5],[1,0.5]];portConstraint=eastwest;top=0;left=0;right=0;bottom=1;" parent="kB7soZWUzMKkuwf9A85N-174" vertex="1">
          <mxGeometry y="40" width="220" height="30" as="geometry" />
        </mxCell>
        <mxCell id="kB7soZWUzMKkuwf9A85N-176" value="PK" style="shape=partialRectangle;connectable=0;fillColor=none;top=0;left=0;bottom=0;right=0;fontStyle=1;overflow=hidden;whiteSpace=wrap;html=1;" parent="kB7soZWUzMKkuwf9A85N-175" vertex="1">
          <mxGeometry width="30" height="30" as="geometry">
            <mxRectangle width="30" height="30" as="alternateBounds" />
          </mxGeometry>
        </mxCell>
        <mxCell id="kB7soZWUzMKkuwf9A85N-177" value="&lt;span style=&quot;text-wrap: nowrap;&quot;&gt;animal_id&amp;nbsp;int NOT NULL&lt;/span&gt;" style="shape=partialRectangle;connectable=0;fillColor=none;top=0;left=0;bottom=0;right=0;align=left;spacingLeft=6;fontStyle=5;overflow=hidden;whiteSpace=wrap;html=1;" parent="kB7soZWUzMKkuwf9A85N-175" vertex="1">
          <mxGeometry x="30" width="190" height="30" as="geometry">
            <mxRectangle width="190" height="30" as="alternateBounds" />
          </mxGeometry>
        </mxCell>
        <mxCell id="kB7soZWUzMKkuwf9A85N-178" value="" style="shape=tableRow;horizontal=0;startSize=0;swimlaneHead=0;swimlaneBody=0;fillColor=none;collapsible=0;dropTarget=0;points=[[0,0.5],[1,0.5]];portConstraint=eastwest;top=0;left=0;right=0;bottom=0;" parent="kB7soZWUzMKkuwf9A85N-174" vertex="1">
          <mxGeometry y="70" width="220" height="30" as="geometry" />
        </mxCell>
        <mxCell id="kB7soZWUzMKkuwf9A85N-179" value="FK" style="shape=partialRectangle;connectable=0;fillColor=none;top=0;left=0;bottom=0;right=0;editable=1;overflow=hidden;whiteSpace=wrap;html=1;" parent="kB7soZWUzMKkuwf9A85N-178" vertex="1">
          <mxGeometry width="30" height="30" as="geometry">
            <mxRectangle width="30" height="30" as="alternateBounds" />
          </mxGeometry>
        </mxCell>
        <mxCell id="kB7soZWUzMKkuwf9A85N-180" value="&lt;span style=&quot;font-weight: 700; text-wrap: nowrap; text-decoration-line: underline;&quot;&gt;animal_id&amp;nbsp;int NOT NULL&lt;/span&gt;" style="shape=partialRectangle;connectable=0;fillColor=none;top=0;left=0;bottom=0;right=0;align=left;spacingLeft=6;overflow=hidden;whiteSpace=wrap;html=1;" parent="kB7soZWUzMKkuwf9A85N-178" vertex="1">
          <mxGeometry x="30" width="190" height="30" as="geometry">
            <mxRectangle width="190" height="30" as="alternateBounds" />
          </mxGeometry>
        </mxCell>
        <mxCell id="kB7soZWUzMKkuwf9A85N-184" value="Eagle" style="shape=table;startSize=40;container=1;collapsible=1;childLayout=tableLayout;fixedRows=1;rowLines=0;fontStyle=1;align=center;resizeLast=1;html=1;" parent="1" vertex="1">
          <mxGeometry x="1580" y="760" width="220" height="100" as="geometry" />
        </mxCell>
        <mxCell id="kB7soZWUzMKkuwf9A85N-185" value="" style="shape=tableRow;horizontal=0;startSize=0;swimlaneHead=0;swimlaneBody=0;fillColor=none;collapsible=0;dropTarget=0;points=[[0,0.5],[1,0.5]];portConstraint=eastwest;top=0;left=0;right=0;bottom=1;" parent="kB7soZWUzMKkuwf9A85N-184" vertex="1">
          <mxGeometry y="40" width="220" height="30" as="geometry" />
        </mxCell>
        <mxCell id="kB7soZWUzMKkuwf9A85N-186" value="PK" style="shape=partialRectangle;connectable=0;fillColor=none;top=0;left=0;bottom=0;right=0;fontStyle=1;overflow=hidden;whiteSpace=wrap;html=1;" parent="kB7soZWUzMKkuwf9A85N-185" vertex="1">
          <mxGeometry width="30" height="30" as="geometry">
            <mxRectangle width="30" height="30" as="alternateBounds" />
          </mxGeometry>
        </mxCell>
        <mxCell id="kB7soZWUzMKkuwf9A85N-187" value="&lt;span style=&quot;text-wrap: nowrap;&quot;&gt;animal_id&amp;nbsp;int NOT NULL&lt;/span&gt;" style="shape=partialRectangle;connectable=0;fillColor=none;top=0;left=0;bottom=0;right=0;align=left;spacingLeft=6;fontStyle=5;overflow=hidden;whiteSpace=wrap;html=1;" parent="kB7soZWUzMKkuwf9A85N-185" vertex="1">
          <mxGeometry x="30" width="190" height="30" as="geometry">
            <mxRectangle width="190" height="30" as="alternateBounds" />
          </mxGeometry>
        </mxCell>
        <mxCell id="kB7soZWUzMKkuwf9A85N-188" value="" style="shape=tableRow;horizontal=0;startSize=0;swimlaneHead=0;swimlaneBody=0;fillColor=none;collapsible=0;dropTarget=0;points=[[0,0.5],[1,0.5]];portConstraint=eastwest;top=0;left=0;right=0;bottom=0;" parent="kB7soZWUzMKkuwf9A85N-184" vertex="1">
          <mxGeometry y="70" width="220" height="30" as="geometry" />
        </mxCell>
        <mxCell id="kB7soZWUzMKkuwf9A85N-189" value="FK" style="shape=partialRectangle;connectable=0;fillColor=none;top=0;left=0;bottom=0;right=0;editable=1;overflow=hidden;whiteSpace=wrap;html=1;" parent="kB7soZWUzMKkuwf9A85N-188" vertex="1">
          <mxGeometry width="30" height="30" as="geometry">
            <mxRectangle width="30" height="30" as="alternateBounds" />
          </mxGeometry>
        </mxCell>
        <mxCell id="kB7soZWUzMKkuwf9A85N-190" value="&lt;span style=&quot;font-weight: 700; text-wrap: nowrap; text-decoration-line: underline;&quot;&gt;animal_id&amp;nbsp;int NOT NULL&lt;/span&gt;" style="shape=partialRectangle;connectable=0;fillColor=none;top=0;left=0;bottom=0;right=0;align=left;spacingLeft=6;overflow=hidden;whiteSpace=wrap;html=1;" parent="kB7soZWUzMKkuwf9A85N-188" vertex="1">
          <mxGeometry x="30" width="190" height="30" as="geometry">
            <mxRectangle width="190" height="30" as="alternateBounds" />
          </mxGeometry>
        </mxCell>
        <mxCell id="kB7soZWUzMKkuwf9A85N-191" value="&lt;b&gt;Eagle&lt;/b&gt;" style="rounded=0;whiteSpace=wrap;html=1;" parent="1" vertex="1">
          <mxGeometry x="1562.5" y="1610" width="120" height="40" as="geometry" />
        </mxCell>
        <mxCell id="kB7soZWUzMKkuwf9A85N-193" value="" style="endArrow=none;html=1;rounded=0;" parent="1" edge="1">
          <mxGeometry width="50" height="50" relative="1" as="geometry">
            <mxPoint x="1502.5" y="1820" as="sourcePoint" />
            <mxPoint x="1502.5" y="1770" as="targetPoint" />
          </mxGeometry>
        </mxCell>
        <mxCell id="kB7soZWUzMKkuwf9A85N-194" value="" style="endArrow=none;html=1;rounded=0;" parent="1" edge="1">
          <mxGeometry width="50" height="50" relative="1" as="geometry">
            <mxPoint x="1502.5" y="1770" as="sourcePoint" />
            <mxPoint x="1502.5" y="1720" as="targetPoint" />
          </mxGeometry>
        </mxCell>
        <mxCell id="kB7soZWUzMKkuwf9A85N-195" value="&lt;b&gt;Tiger&lt;/b&gt;" style="rounded=0;whiteSpace=wrap;html=1;" parent="1" vertex="1">
          <mxGeometry x="1572.5" y="1800" width="120" height="40" as="geometry" />
        </mxCell>
        <mxCell id="kB7soZWUzMKkuwf9A85N-196" value="&lt;b&gt;Lion&lt;/b&gt;" style="rounded=0;whiteSpace=wrap;html=1;" parent="1" vertex="1">
          <mxGeometry x="1572.5" y="1700" width="120" height="40" as="geometry" />
        </mxCell>
        <mxCell id="kB7soZWUzMKkuwf9A85N-197" value="" style="endArrow=none;html=1;rounded=0;" parent="1" target="kB7soZWUzMKkuwf9A85N-195" edge="1">
          <mxGeometry width="50" height="50" relative="1" as="geometry">
            <mxPoint x="1502.5" y="1820" as="sourcePoint" />
            <mxPoint x="1702.5" y="1800" as="targetPoint" />
          </mxGeometry>
        </mxCell>
        <mxCell id="kB7soZWUzMKkuwf9A85N-198" value="" style="endArrow=none;html=1;rounded=0;entryX=0;entryY=0.5;entryDx=0;entryDy=0;" parent="1" target="kB7soZWUzMKkuwf9A85N-196" edge="1">
          <mxGeometry width="50" height="50" relative="1" as="geometry">
            <mxPoint x="1502.5" y="1720" as="sourcePoint" />
            <mxPoint x="1702.5" y="1800" as="targetPoint" />
          </mxGeometry>
        </mxCell>
        <mxCell id="kB7soZWUzMKkuwf9A85N-204" value="" style="edgeStyle=entityRelationEdgeStyle;fontSize=12;html=1;endArrow=ERzeroToOne;endFill=1;rounded=0;exitX=1;exitY=0.5;exitDx=0;exitDy=0;entryX=0;entryY=0.5;entryDx=0;entryDy=0;" parent="1" source="kB7soZWUzMKkuwf9A85N-24" target="kB7soZWUzMKkuwf9A85N-108" edge="1">
          <mxGeometry width="100" height="100" relative="1" as="geometry">
            <mxPoint x="1280" y="1110" as="sourcePoint" />
            <mxPoint x="1380" y="1010" as="targetPoint" />
          </mxGeometry>
        </mxCell>
        <mxCell id="kB7soZWUzMKkuwf9A85N-205" value="" style="edgeStyle=entityRelationEdgeStyle;fontSize=12;html=1;endArrow=ERzeroToOne;endFill=1;rounded=0;exitX=1;exitY=0.5;exitDx=0;exitDy=0;entryX=0;entryY=0.5;entryDx=0;entryDy=0;" parent="1" source="kB7soZWUzMKkuwf9A85N-21" target="kB7soZWUzMKkuwf9A85N-101" edge="1">
          <mxGeometry width="100" height="100" relative="1" as="geometry">
            <mxPoint x="1063" y="880" as="sourcePoint" />
            <mxPoint x="1210" y="910" as="targetPoint" />
          </mxGeometry>
        </mxCell>
        <mxCell id="kB7soZWUzMKkuwf9A85N-206" value="" style="edgeStyle=entityRelationEdgeStyle;fontSize=12;html=1;endArrow=ERzeroToOne;endFill=1;rounded=0;exitX=1;exitY=0.5;exitDx=0;exitDy=0;" parent="1" source="kB7soZWUzMKkuwf9A85N-101" target="kB7soZWUzMKkuwf9A85N-185" edge="1">
          <mxGeometry width="100" height="100" relative="1" as="geometry">
            <mxPoint x="1073" y="1005" as="sourcePoint" />
            <mxPoint x="1220" y="1065" as="targetPoint" />
          </mxGeometry>
        </mxCell>
        <mxCell id="kB7soZWUzMKkuwf9A85N-207" value="" style="edgeStyle=entityRelationEdgeStyle;fontSize=12;html=1;endArrow=ERzeroToOne;endFill=1;rounded=0;exitX=1;exitY=0.25;exitDx=0;exitDy=0;entryX=-0.01;entryY=0.25;entryDx=0;entryDy=0;entryPerimeter=0;" parent="1" source="kB7soZWUzMKkuwf9A85N-107" target="kB7soZWUzMKkuwf9A85N-168" edge="1">
          <mxGeometry width="100" height="100" relative="1" as="geometry">
            <mxPoint x="1073" y="975" as="sourcePoint" />
            <mxPoint x="1210" y="905" as="targetPoint" />
          </mxGeometry>
        </mxCell>
        <mxCell id="kB7soZWUzMKkuwf9A85N-208" value="" style="edgeStyle=entityRelationEdgeStyle;fontSize=12;html=1;endArrow=ERzeroToOne;endFill=1;rounded=0;exitX=1;exitY=0.5;exitDx=0;exitDy=0;" parent="1" source="kB7soZWUzMKkuwf9A85N-108" target="kB7soZWUzMKkuwf9A85N-174" edge="1">
          <mxGeometry width="100" height="100" relative="1" as="geometry">
            <mxPoint x="1490" y="1035" as="sourcePoint" />
            <mxPoint x="1588" y="998" as="targetPoint" />
          </mxGeometry>
        </mxCell>
        <mxCell id="d6577K6XvKK0PcRXe2r3-1" value="" style="shape=flexArrow;endArrow=classic;html=1;rounded=0;exitX=0;exitY=0.5;exitDx=0;exitDy=0;width=5.714285714285714;endSize=8.971428571428572;entryX=1;entryY=0.5;entryDx=0;entryDy=0;" parent="1" source="kB7soZWUzMKkuwf9A85N-191" target="kB7soZWUzMKkuwf9A85N-139" edge="1">
          <mxGeometry width="50" height="50" relative="1" as="geometry">
            <mxPoint x="1402.5" y="1542.380894252232" as="sourcePoint" />
            <mxPoint x="1192.5" y="1560" as="targetPoint" />
          </mxGeometry>
        </mxCell>
        <mxCell id="d6577K6XvKK0PcRXe2r3-2" value="" style="shape=flexArrow;endArrow=classic;html=1;rounded=0;entryX=1;entryY=0.5;entryDx=0;entryDy=0;" parent="1" target="kB7soZWUzMKkuwf9A85N-140" edge="1">
          <mxGeometry width="50" height="50" relative="1" as="geometry">
            <mxPoint x="1502.5" y="1770" as="sourcePoint" />
            <mxPoint x="1192.5" y="1500" as="targetPoint" />
          </mxGeometry>
        </mxCell>
        <mxCell id="d6577K6XvKK0PcRXe2r3-4" value="" style="shape=flexArrow;endArrow=classic;html=1;rounded=0;entryX=1;entryY=0.5;entryDx=0;entryDy=0;" parent="1" target="kB7soZWUzMKkuwf9A85N-123" edge="1">
          <mxGeometry width="50" height="50" relative="1" as="geometry">
            <mxPoint x="1212.5" y="1710" as="sourcePoint" />
            <mxPoint x="1192.5" y="1500" as="targetPoint" />
          </mxGeometry>
        </mxCell>
        <mxCell id="d6577K6XvKK0PcRXe2r3-5" value="" style="endArrow=none;html=1;rounded=0;entryX=0;entryY=0.5;entryDx=0;entryDy=0;" parent="1" target="kB7soZWUzMKkuwf9A85N-140" edge="1">
          <mxGeometry width="50" height="50" relative="1" as="geometry">
            <mxPoint x="1212.5" y="1770" as="sourcePoint" />
            <mxPoint x="1192.5" y="1500" as="targetPoint" />
          </mxGeometry>
        </mxCell>
        <mxCell id="d6577K6XvKK0PcRXe2r3-6" value="" style="endArrow=none;html=1;rounded=0;" parent="1" edge="1">
          <mxGeometry width="50" height="50" relative="1" as="geometry">
            <mxPoint x="1212.5" y="1630" as="sourcePoint" />
            <mxPoint x="1272.5" y="1630" as="targetPoint" />
          </mxGeometry>
        </mxCell>
        <mxCell id="d6577K6XvKK0PcRXe2r3-7" value="" style="endArrow=none;html=1;rounded=0;" parent="1" edge="1">
          <mxGeometry width="50" height="50" relative="1" as="geometry">
            <mxPoint x="1212.5" y="1770" as="sourcePoint" />
            <mxPoint x="1212.5" y="1630" as="targetPoint" />
          </mxGeometry>
        </mxCell>
        <mxCell id="P_95ijux-B7QLxCCbA9r-1" value="" style="endArrow=none;html=1;rounded=0;fontStyle=1" edge="1" parent="1">
          <mxGeometry width="50" height="50" relative="1" as="geometry">
            <mxPoint x="837.5" y="1880" as="sourcePoint" />
            <mxPoint x="857.5" y="1860" as="targetPoint" />
          </mxGeometry>
        </mxCell>
        <mxCell id="P_95ijux-B7QLxCCbA9r-2" value="" style="ellipse;whiteSpace=wrap;html=1;aspect=fixed;fontStyle=1;fillColor=#ffe6cc;strokeColor=#d79b00;" vertex="1" parent="1">
          <mxGeometry x="797.5" y="1870" width="50" height="50" as="geometry" />
        </mxCell>
        <mxCell id="P_95ijux-B7QLxCCbA9r-3" value="&lt;font style=&quot;font-size: 10px;&quot;&gt;Direction&lt;/font&gt;" style="text;html=1;align=center;verticalAlign=middle;resizable=0;points=[];autosize=1;strokeColor=none;fillColor=none;fontStyle=1" vertex="1" parent="1">
          <mxGeometry x="792.5" y="1880" width="60" height="30" as="geometry" />
        </mxCell>
        <mxCell id="P_95ijux-B7QLxCCbA9r-5" value="(1,1)" style="text;html=1;align=center;verticalAlign=middle;resizable=0;points=[];autosize=1;strokeColor=none;fillColor=none;fontStyle=1" vertex="1" parent="1">
          <mxGeometry x="960" y="1975" width="50" height="30" as="geometry" />
        </mxCell>
      </root>
    </mxGraphModel>
  </diagram>
</mxfile>
